<svg version="1.1" id="Layer_1" xmlns="http://www.w3.org/2000/svg" xmlns:xlink="http://www.w3.org/1999/xlink" x="0px" y="0px"
	 width="100%" viewBox="0 0 336 304" enable-background="new 0 0 336 304" xml:space="preserve">
<path fill="#FFFFFF" opacity="1.000000" stroke="none" 
	d="
M134.726685,258.081299 
	C134.485001,257.599396 134.350815,257.465790 134.321045,257.312012 
	C132.389801,247.338516 126.037682,245.654953 116.712799,246.109924 
	C99.593842,246.945175 82.404701,246.318832 65.244987,246.364273 
	C62.296616,246.372070 59.634541,246.045349 57.653080,243.504684 
	C54.780296,239.821136 54.730335,235.732498 58.982002,233.176804 
	C75.329422,223.350220 81.137444,207.554184 84.707359,190.177979 
	C87.094765,178.557510 87.767868,166.870010 87.732719,155.039047 
	C87.698128,143.399765 86.276459,131.614166 88.439987,120.134048 
	C93.442909,93.587494 107.748192,73.531288 132.019012,61.062260 
	C135.150574,59.453430 136.357132,57.346859 136.997940,53.815617 
	C139.810638,38.316006 153.121414,27.449270 168.321945,27.667622 
	C183.858307,27.890797 196.714432,39.058361 199.146759,54.926769 
	C199.625320,58.048851 200.922180,59.460224 203.496460,60.805923 
	C232.622787,76.031616 247.585434,100.163651 248.292389,132.999756 
	C248.611053,147.801239 247.677444,162.645721 249.388123,177.396225 
	C251.330643,194.145981 254.283417,210.636414 265.870117,223.979492 
	C268.469666,226.973129 271.431885,229.536224 275.021942,231.541473 
	C278.345215,233.397705 281.509003,236.244598 279.971466,240.841354 
	C278.572632,245.023422 275.235077,246.394272 270.929230,246.376083 
	C250.937546,246.291656 230.944626,246.429199 210.953796,246.275177 
	C207.230240,246.246490 205.290024,247.214172 204.248184,251.042450 
	C200.070679,266.392792 186.773895,276.310272 172.822708,277.980957 
	C156.293762,279.960327 143.490204,272.783356 134.726685,258.081299 
M168.466446,67.356346 
	C163.434921,67.146278 158.510056,67.916275 153.645645,69.081306 
	C122.835861,76.460220 102.610344,102.128029 102.275772,133.825836 
	C102.108887,149.636520 103.187248,165.472031 101.374908,181.261887 
	C100.950981,184.955399 99.415649,188.608566 100.506462,192.912903 
	C102.236633,192.912903 103.871674,192.912994 105.506714,192.912872 
	C145.168228,192.910156 184.829758,192.906128 224.491272,192.905487 
	C235.700226,192.905319 235.699921,192.909912 234.730072,182.061111 
	C234.700409,181.729385 234.713745,181.393188 234.673584,181.063141 
	C232.692825,164.786819 233.930649,148.442627 233.708786,132.132095 
	C233.231125,97.016716 204.538269,67.991356 168.466446,67.356346 
M248.931503,226.303833 
	C246.372772,221.823502 243.733292,217.345840 242.192780,212.415237 
	C241.149139,209.074905 239.220505,208.171188 235.935822,208.204651 
	C222.287460,208.343658 208.636948,208.275360 194.987213,208.274384 
	C163.526245,208.272156 132.065262,208.253708 100.604324,208.284973 
	C98.548523,208.287018 95.907021,207.499420 94.906799,210.159943 
	C92.288269,217.125076 88.995560,223.757202 84.565887,230.667450 
	C140.488419,230.667450 195.476395,230.667450 250.381317,230.667450 
	C251.197037,228.903595 249.832794,228.033295 248.931503,226.303833 
M181.367004,246.347290 
	C169.830627,246.347290 158.294250,246.347290 146.592056,246.347290 
	C148.502838,256.020050 158.503815,263.569305 168.111343,263.416656 
	C178.161789,263.257019 188.035873,255.587128 189.080627,247.045990 
	C186.945892,245.770004 184.568207,246.573135 181.367004,246.347290 
M156.567734,52.960079 
	C165.085556,51.906902 173.617126,52.440826 182.262573,53.135395 
	C180.466385,46.987602 175.058975,43.010139 168.424240,42.644985 
	C163.159119,42.355213 156.186493,46.268486 154.287613,50.534214 
	C153.534042,52.227119 153.230194,53.541740 156.567734,52.960079 
z"/>
<path fill="#000000" opacity="1.000000" stroke="none" 
	d="
M168.699570,91.215912 
	C147.779892,92.620743 133.385803,104.025635 128.870239,122.629524 
	C128.129898,125.679695 127.932892,128.858139 127.390732,131.960861 
	C126.564369,136.690125 123.376907,139.525818 119.428909,139.150955 
	C115.544357,138.782104 112.556839,135.366760 112.725769,130.642181 
	C113.481819,109.496262 123.194748,93.621559 141.476624,83.073532 
	C149.087433,78.682350 157.411758,76.466141 166.220474,76.343719 
	C170.291870,76.287132 173.938461,77.282814 175.142242,81.868729 
	C176.276321,86.188988 174.376892,89.014000 168.699570,91.215912 
z"/>
</svg>